<?xml version="1.0" standalone="no"?>
<!DOCTYPE svg PUBLIC "-//W3C//DTD SVG 20010904//EN"
 "http://www.w3.org/TR/2001/REC-SVG-20010904/DTD/svg10.dtd">
<svg version="1.0" xmlns="http://www.w3.org/2000/svg"
 width="512.000000pt" height="512.000000pt" viewBox="0 0 512.000000 512.000000"
 preserveAspectRatio="xMidYMid meet">
<g transform="translate(0.000000,512.000000) scale(0.100000,-0.100000)"
fill="#000000" stroke="none">
<path d="M360 5101 c-91 -29 -142 -61 -211 -130 -70 -70 -106 -130 -133 -220
-14 -50 -16 -255 -16 -2191 0 -2343 -4 -2173 58 -2295 32 -64 143 -175 207
-207 122 -62 -48 -58 2295 -58 2343 0 2173 -4 2295 58 64 32 175 143 207 207
62 122 58 -48 58 2295 0 2343 4 2173 -58 2295 -32 64 -143 175 -207 207 -122
62 49 58 -2299 57 -2024 0 -2144 -1 -2196 -18z m4430 -853 c41 -28 70 -81 70
-128 0 -33 -57 -242 -241 -875 -109 -375 -165 -546 -236 -728 -99 -256 -433
-1238 -555 -1634 -9 -32 -11 -33 -64 -33 -45 0 -59 4 -79 25 -23 22 -25 32
-25 117 1 122 23 221 105 453 135 383 165 497 165 641 l0 84 -184 199 c-491
533 -681 785 -822 1087 -50 109 -54 135 -20 169 20 20 92 45 99 34 2 -2 23
-29 48 -59 25 -30 128 -163 229 -295 319 -418 508 -638 660 -772 84 -74 99
-83 129 -81 l35 3 118 315 c206 547 370 1047 445 1351 35 146 37 149 63 149
15 0 42 -10 60 -22z m-3050 -287 c14 -10 46 -45 71 -77 35 -45 52 -60 75 -62
16 -2 176 13 354 33 179 19 440 46 580 60 140 14 291 30 335 35 131 15 129 15
121 -22 -15 -74 -129 -147 -299 -194 -173 -46 -395 -75 -861 -109 -114 -8
-219 -18 -231 -21 -22 -5 -24 -13 -31 -102 -15 -212 22 -635 116 -1307 97
-692 104 -757 120 -1100 13 -259 18 -245 -100 -245 l-76 0 -22 93 c-64 269
-111 655 -197 1617 -45 497 -81 810 -111 953 l-6 27 -106 0 c-116 0 -274 -23
-477 -69 -339 -76 -393 -85 -548 -85 -147 -1 -149 -1 -169 24 -37 46 -4 141
61 174 14 8 278 51 586 95 308 45 570 83 581 86 16 4 25 17 33 52 37 150 114
205 201 144z"/>
</g>
</svg>
